<svg xmlns="http://www.w3.org/2000/svg" xmlns:xlink="http://www.w3.org/1999/xlink" width="200" zoomAndPan="magnify" viewBox="0 0 150 37.5" height="50" preserveAspectRatio="xMidYMid meet" version="1.0"><defs><g/><clipPath id="da21480f12"><path d="M 9.265625 0.597656 L 43.3125 0.597656 L 43.3125 36.125 L 9.265625 36.125 Z M 9.265625 0.597656 " clip-rule="nonzero"/></clipPath></defs><g clip-path="url(#da21480f12)"><path fill="#ffffff" d="M 21.25 29.816406 L 24.914062 25.984375 C 26.226562 26.367188 27.476562 26.847656 28.660156 27.394531 L 27.996094 28.128906 C 31.445312 29.847656 34.207031 31.824219 36.414062 33.84375 C 37.035156 33.46875 37.628906 33.058594 38.195312 32.617188 C 34.871094 29.550781 28.234375 24.609375 19.90625 24.4375 L 23.199219 20.988281 C 24.5625 21.3125 25.859375 21.75 27.089844 22.265625 L 26.652344 22.75 C 32.269531 25.554688 36.066406 29.03125 38.617188 32.277344 C 39.039062 31.925781 39.445312 31.558594 39.835938 31.167969 C 36.386719 27.050781 29.972656 21.070312 21.117188 19.929688 L 35.554688 6.816406 C 35.554688 6.816406 39.289062 7.3125 43.035156 10.167969 C 40.035156 4.476562 34.066406 0.597656 27.1875 0.597656 C 17.300781 0.597656 9.289062 8.613281 9.289062 18.5 C 9.289062 28.386719 17.300781 36.402344 27.1875 36.402344 C 30.203125 36.402344 33.042969 35.65625 35.535156 34.339844 C 31.960938 32.140625 26.527344 29.515625 21.25 29.816406 " fill-opacity="1" fill-rule="nonzero"/></g><g fill="#ffffff" fill-opacity="1"><g transform="translate(49.273086, 19.447582)"><g><path d="M 6.75 -1.40625 L 6.75 0 L 0.890625 0 L 0.890625 -7.5625 L 6.609375 -7.5625 L 6.609375 -6.15625 L 2.640625 -6.15625 L 2.640625 -4.515625 L 6.140625 -4.515625 L 6.140625 -3.15625 L 2.640625 -3.15625 L 2.640625 -1.40625 Z M 6.75 -1.40625 "/></g></g></g><g fill="#ffffff" fill-opacity="1"><g transform="translate(57.00834, 19.447582)"><g><path d="M 0.890625 -7.5625 L 4.328125 -7.5625 C 5.148438 -7.5625 5.875 -7.40625 6.5 -7.09375 C 7.132812 -6.78125 7.625 -6.335938 7.96875 -5.765625 C 8.320312 -5.191406 8.5 -4.53125 8.5 -3.78125 C 8.5 -3.019531 8.320312 -2.351562 7.96875 -1.78125 C 7.625 -1.21875 7.132812 -0.78125 6.5 -0.46875 C 5.875 -0.15625 5.148438 0 4.328125 0 L 0.890625 0 Z M 4.25 -1.4375 C 5 -1.4375 5.597656 -1.644531 6.046875 -2.0625 C 6.492188 -2.488281 6.71875 -3.0625 6.71875 -3.78125 C 6.71875 -4.5 6.492188 -5.066406 6.046875 -5.484375 C 5.597656 -5.910156 5 -6.125 4.25 -6.125 L 2.640625 -6.125 L 2.640625 -1.4375 Z M 4.25 -1.4375 "/></g></g></g><g fill="#ffffff" fill-opacity="1"><g transform="translate(66.415732, 19.447582)"><g><path d="M 4.25 0.125 C 3.175781 0.125 2.335938 -0.171875 1.734375 -0.765625 C 1.128906 -1.359375 0.828125 -2.210938 0.828125 -3.328125 L 0.828125 -7.5625 L 2.578125 -7.5625 L 2.578125 -3.390625 C 2.578125 -2.035156 3.140625 -1.359375 4.265625 -1.359375 C 4.804688 -1.359375 5.222656 -1.519531 5.515625 -1.84375 C 5.804688 -2.175781 5.953125 -2.691406 5.953125 -3.390625 L 5.953125 -7.5625 L 7.671875 -7.5625 L 7.671875 -3.328125 C 7.671875 -2.210938 7.367188 -1.359375 6.765625 -0.765625 C 6.171875 -0.171875 5.332031 0.125 4.25 0.125 Z M 4.25 0.125 "/></g></g></g><g fill="#ffffff" fill-opacity="1"><g transform="translate(75.41318, 19.447582)"><g/></g></g><g fill="#ffffff" fill-opacity="1"><g transform="translate(78.962704, 19.447582)"><g><path d="M 0.890625 -7.5625 L 2.640625 -7.5625 L 2.640625 -1.421875 L 6.4375 -1.421875 L 6.4375 0 L 0.890625 0 Z M 0.890625 -7.5625 "/></g></g></g><g fill="#ffffff" fill-opacity="1"><g transform="translate(85.975164, 19.447582)"><g><path d="M 6.75 -1.40625 L 6.75 0 L 0.890625 0 L 0.890625 -7.5625 L 6.609375 -7.5625 L 6.609375 -6.15625 L 2.640625 -6.15625 L 2.640625 -4.515625 L 6.140625 -4.515625 L 6.140625 -3.15625 L 2.640625 -3.15625 L 2.640625 -1.40625 Z M 6.75 -1.40625 "/></g></g></g><g fill="#ffffff" fill-opacity="1"><g transform="translate(93.710418, 19.447582)"><g><path d="M 5.875 -1.625 L 2.359375 -1.625 L 1.6875 0 L -0.09375 0 L 3.265625 -7.5625 L 5 -7.5625 L 8.375 0 L 6.546875 0 Z M 5.328125 -2.953125 L 4.125 -5.84375 L 2.921875 -2.953125 Z M 5.328125 -2.953125 "/></g></g></g><g fill="#ffffff" fill-opacity="1"><g transform="translate(102.470533, 19.447582)"><g><path d="M 5.71875 0 L 4.25 -2.109375 L 2.640625 -2.109375 L 2.640625 0 L 0.890625 0 L 0.890625 -7.5625 L 4.171875 -7.5625 C 4.835938 -7.5625 5.414062 -7.445312 5.90625 -7.21875 C 6.40625 -7 6.785156 -6.679688 7.046875 -6.265625 C 7.316406 -5.859375 7.453125 -5.375 7.453125 -4.8125 C 7.453125 -4.25 7.316406 -3.765625 7.046875 -3.359375 C 6.773438 -2.953125 6.390625 -2.640625 5.890625 -2.421875 L 7.59375 0 Z M 5.671875 -4.8125 C 5.671875 -5.238281 5.535156 -5.5625 5.265625 -5.78125 C 4.992188 -6.007812 4.597656 -6.125 4.078125 -6.125 L 2.640625 -6.125 L 2.640625 -3.5 L 4.078125 -3.5 C 4.597656 -3.5 4.992188 -3.613281 5.265625 -3.84375 C 5.535156 -4.070312 5.671875 -4.394531 5.671875 -4.8125 Z M 5.671875 -4.8125 "/></g></g></g><g fill="#ffffff" fill-opacity="1"><g transform="translate(110.896219, 19.447582)"><g><path d="M 7.828125 -7.5625 L 7.828125 0 L 6.390625 0 L 2.625 -4.59375 L 2.625 0 L 0.890625 0 L 0.890625 -7.5625 L 2.34375 -7.5625 L 6.09375 -2.96875 L 6.09375 -7.5625 Z M 7.828125 -7.5625 "/></g></g></g><g fill="#ffffff" fill-opacity="1"><g transform="translate(120.109424, 19.447582)"><g><path d="M 0.890625 -7.5625 L 2.640625 -7.5625 L 2.640625 0 L 0.890625 0 Z M 0.890625 -7.5625 "/></g></g></g><g fill="#ffffff" fill-opacity="1"><g transform="translate(124.144403, 19.447582)"><g><path d="M 7.828125 -7.5625 L 7.828125 0 L 6.390625 0 L 2.625 -4.59375 L 2.625 0 L 0.890625 0 L 0.890625 -7.5625 L 2.34375 -7.5625 L 6.09375 -2.96875 L 6.09375 -7.5625 Z M 7.828125 -7.5625 "/></g></g></g><g fill="#ffffff" fill-opacity="1"><g transform="translate(133.357614, 19.447582)"><g><path d="M 6 -3.890625 L 7.59375 -3.890625 L 7.59375 -0.828125 C 7.1875 -0.515625 6.710938 -0.273438 6.171875 -0.109375 C 5.628906 0.046875 5.085938 0.125 4.546875 0.125 C 3.765625 0.125 3.054688 -0.0390625 2.421875 -0.375 C 1.796875 -0.707031 1.304688 -1.171875 0.953125 -1.765625 C 0.597656 -2.359375 0.421875 -3.03125 0.421875 -3.78125 C 0.421875 -4.53125 0.597656 -5.203125 0.953125 -5.796875 C 1.304688 -6.390625 1.800781 -6.851562 2.4375 -7.1875 C 3.070312 -7.519531 3.785156 -7.6875 4.578125 -7.6875 C 5.242188 -7.6875 5.84375 -7.570312 6.375 -7.34375 C 6.914062 -7.125 7.367188 -6.800781 7.734375 -6.375 L 6.625 -5.34375 C 6.082031 -5.914062 5.429688 -6.203125 4.671875 -6.203125 C 4.179688 -6.203125 3.75 -6.097656 3.375 -5.890625 C 3 -5.691406 2.707031 -5.40625 2.5 -5.03125 C 2.289062 -4.664062 2.1875 -4.25 2.1875 -3.78125 C 2.1875 -3.3125 2.289062 -2.890625 2.5 -2.515625 C 2.707031 -2.148438 3 -1.863281 3.375 -1.65625 C 3.75 -1.457031 4.171875 -1.359375 4.640625 -1.359375 C 5.140625 -1.359375 5.59375 -1.46875 6 -1.6875 Z M 6 -3.890625 "/></g></g></g><g fill="#ffffff" fill-opacity="1"><g transform="translate(49.273086, 29.128491)"><g><path d="M 1.28125 0.03125 C 1.0625 0.03125 0.851562 -0.00390625 0.65625 -0.078125 C 0.457031 -0.148438 0.304688 -0.242188 0.203125 -0.359375 L 0.3125 -0.59375 C 0.425781 -0.488281 0.566406 -0.398438 0.734375 -0.328125 C 0.910156 -0.265625 1.09375 -0.234375 1.28125 -0.234375 C 1.539062 -0.234375 1.738281 -0.28125 1.875 -0.375 C 2.007812 -0.476562 2.078125 -0.609375 2.078125 -0.765625 C 2.078125 -0.878906 2.039062 -0.96875 1.96875 -1.03125 C 1.894531 -1.101562 1.804688 -1.15625 1.703125 -1.1875 C 1.597656 -1.226562 1.453125 -1.273438 1.265625 -1.328125 C 1.046875 -1.378906 0.867188 -1.429688 0.734375 -1.484375 C 0.609375 -1.535156 0.5 -1.613281 0.40625 -1.71875 C 0.3125 -1.820312 0.265625 -1.96875 0.265625 -2.15625 C 0.265625 -2.300781 0.300781 -2.429688 0.375 -2.546875 C 0.457031 -2.671875 0.578125 -2.769531 0.734375 -2.84375 C 0.898438 -2.914062 1.101562 -2.953125 1.34375 -2.953125 C 1.507812 -2.953125 1.671875 -2.925781 1.828125 -2.875 C 1.992188 -2.832031 2.132812 -2.773438 2.25 -2.703125 L 2.15625 -2.453125 C 2.03125 -2.535156 1.894531 -2.59375 1.75 -2.625 C 1.613281 -2.664062 1.476562 -2.6875 1.34375 -2.6875 C 1.09375 -2.6875 0.898438 -2.632812 0.765625 -2.53125 C 0.640625 -2.4375 0.578125 -2.3125 0.578125 -2.15625 C 0.578125 -2.039062 0.609375 -1.945312 0.671875 -1.875 C 0.742188 -1.800781 0.832031 -1.742188 0.9375 -1.703125 C 1.050781 -1.671875 1.195312 -1.632812 1.375 -1.59375 C 1.59375 -1.539062 1.769531 -1.488281 1.90625 -1.4375 C 2.039062 -1.382812 2.148438 -1.304688 2.234375 -1.203125 C 2.328125 -1.097656 2.375 -0.957031 2.375 -0.78125 C 2.375 -0.625 2.332031 -0.484375 2.25 -0.359375 C 2.175781 -0.242188 2.054688 -0.148438 1.890625 -0.078125 C 1.722656 -0.00390625 1.519531 0.03125 1.28125 0.03125 Z M 1.28125 0.03125 "/></g></g></g><g fill="#ffffff" fill-opacity="1"><g transform="translate(52.867837, 29.128491)"><g><path d="M 0.484375 -2.9375 L 0.78125 -2.9375 L 0.78125 0 L 0.484375 0 Z M 0.484375 -2.9375 "/></g></g></g><g fill="#ffffff" fill-opacity="1"><g transform="translate(55.153157, 29.128491)"><g><path d="M 2.921875 -2.9375 L 2.921875 0 L 2.671875 0 L 0.78125 -2.375 L 0.78125 0 L 0.484375 0 L 0.484375 -2.9375 L 0.734375 -2.9375 L 2.625 -0.546875 L 2.625 -2.9375 Z M 2.921875 -2.9375 "/></g></g></g><g fill="#ffffff" fill-opacity="1"><g transform="translate(59.576237, 29.128491)"><g><path d="M 1.75 0.03125 C 1.457031 0.03125 1.191406 -0.03125 0.953125 -0.15625 C 0.722656 -0.289062 0.539062 -0.472656 0.40625 -0.703125 C 0.28125 -0.929688 0.21875 -1.1875 0.21875 -1.46875 C 0.21875 -1.75 0.28125 -2.003906 0.40625 -2.234375 C 0.539062 -2.460938 0.722656 -2.640625 0.953125 -2.765625 C 1.191406 -2.890625 1.457031 -2.953125 1.75 -2.953125 C 1.96875 -2.953125 2.171875 -2.914062 2.359375 -2.84375 C 2.546875 -2.769531 2.703125 -2.664062 2.828125 -2.53125 L 2.625 -2.328125 C 2.394531 -2.566406 2.109375 -2.6875 1.765625 -2.6875 C 1.535156 -2.6875 1.320312 -2.628906 1.125 -2.515625 C 0.9375 -2.410156 0.789062 -2.265625 0.6875 -2.078125 C 0.582031 -1.898438 0.53125 -1.695312 0.53125 -1.46875 C 0.53125 -1.238281 0.582031 -1.03125 0.6875 -0.84375 C 0.789062 -0.65625 0.9375 -0.507812 1.125 -0.40625 C 1.320312 -0.300781 1.535156 -0.25 1.765625 -0.25 C 2.117188 -0.25 2.40625 -0.367188 2.625 -0.609375 L 2.828125 -0.40625 C 2.703125 -0.269531 2.546875 -0.160156 2.359375 -0.078125 C 2.171875 -0.00390625 1.96875 0.03125 1.75 0.03125 Z M 1.75 0.03125 "/></g></g></g><g fill="#ffffff" fill-opacity="1"><g transform="translate(63.606073, 29.128491)"><g><path d="M 2.546875 -0.265625 L 2.546875 0 L 0.484375 0 L 0.484375 -2.9375 L 2.484375 -2.9375 L 2.484375 -2.65625 L 0.78125 -2.65625 L 0.78125 -1.625 L 2.296875 -1.625 L 2.296875 -1.359375 L 0.78125 -1.359375 L 0.78125 -0.265625 Z M 2.546875 -0.265625 "/></g></g></g><g fill="#ffffff" fill-opacity="1"><g transform="translate(67.426734, 29.128491)"><g/></g></g><g fill="#ffffff" fill-opacity="1"><g transform="translate(69.544718, 29.128491)"><g><path d="M 2.21875 -0.265625 L 2.21875 0 L 0.15625 0 L 0.15625 -0.21875 L 1.375 -1.40625 C 1.53125 -1.5625 1.632812 -1.691406 1.6875 -1.796875 C 1.75 -1.910156 1.78125 -2.019531 1.78125 -2.125 C 1.78125 -2.300781 1.71875 -2.4375 1.59375 -2.53125 C 1.476562 -2.632812 1.3125 -2.6875 1.09375 -2.6875 C 0.75 -2.6875 0.476562 -2.578125 0.28125 -2.359375 L 0.078125 -2.53125 C 0.191406 -2.664062 0.335938 -2.769531 0.515625 -2.84375 C 0.691406 -2.914062 0.890625 -2.953125 1.109375 -2.953125 C 1.410156 -2.953125 1.644531 -2.878906 1.8125 -2.734375 C 1.988281 -2.597656 2.078125 -2.410156 2.078125 -2.171875 C 2.078125 -2.015625 2.046875 -1.863281 1.984375 -1.71875 C 1.921875 -1.582031 1.796875 -1.425781 1.609375 -1.25 L 0.609375 -0.265625 Z M 2.21875 -0.265625 "/></g></g></g><g fill="#ffffff" fill-opacity="1"><g transform="translate(72.942847, 29.128491)"><g><path d="M 1.390625 0.03125 C 1.160156 0.03125 0.957031 -0.0234375 0.78125 -0.140625 C 0.601562 -0.265625 0.460938 -0.441406 0.359375 -0.671875 C 0.265625 -0.898438 0.21875 -1.164062 0.21875 -1.46875 C 0.21875 -1.769531 0.265625 -2.03125 0.359375 -2.25 C 0.460938 -2.476562 0.601562 -2.648438 0.78125 -2.765625 C 0.957031 -2.890625 1.160156 -2.953125 1.390625 -2.953125 C 1.609375 -2.953125 1.804688 -2.890625 1.984375 -2.765625 C 2.160156 -2.648438 2.300781 -2.476562 2.40625 -2.25 C 2.507812 -2.03125 2.5625 -1.769531 2.5625 -1.46875 C 2.5625 -1.164062 2.507812 -0.898438 2.40625 -0.671875 C 2.300781 -0.441406 2.160156 -0.265625 1.984375 -0.140625 C 1.804688 -0.0234375 1.609375 0.03125 1.390625 0.03125 Z M 1.390625 -0.25 C 1.554688 -0.25 1.703125 -0.296875 1.828125 -0.390625 C 1.960938 -0.484375 2.066406 -0.617188 2.140625 -0.796875 C 2.210938 -0.984375 2.25 -1.207031 2.25 -1.46875 C 2.25 -1.71875 2.210938 -1.929688 2.140625 -2.109375 C 2.066406 -2.296875 1.960938 -2.4375 1.828125 -2.53125 C 1.703125 -2.632812 1.554688 -2.6875 1.390625 -2.6875 C 1.210938 -2.6875 1.054688 -2.632812 0.921875 -2.53125 C 0.796875 -2.4375 0.695312 -2.296875 0.625 -2.109375 C 0.5625 -1.929688 0.53125 -1.71875 0.53125 -1.46875 C 0.53125 -1.207031 0.5625 -0.984375 0.625 -0.796875 C 0.695312 -0.617188 0.796875 -0.484375 0.921875 -0.390625 C 1.054688 -0.296875 1.210938 -0.25 1.390625 -0.25 Z M 1.390625 -0.25 "/></g></g></g><g fill="#ffffff" fill-opacity="1"><g transform="translate(76.734222, 29.128491)"><g><path d="M 1.390625 0.03125 C 1.160156 0.03125 0.957031 -0.0234375 0.78125 -0.140625 C 0.601562 -0.265625 0.460938 -0.441406 0.359375 -0.671875 C 0.265625 -0.898438 0.21875 -1.164062 0.21875 -1.46875 C 0.21875 -1.769531 0.265625 -2.03125 0.359375 -2.25 C 0.460938 -2.476562 0.601562 -2.648438 0.78125 -2.765625 C 0.957031 -2.890625 1.160156 -2.953125 1.390625 -2.953125 C 1.609375 -2.953125 1.804688 -2.890625 1.984375 -2.765625 C 2.160156 -2.648438 2.300781 -2.476562 2.40625 -2.25 C 2.507812 -2.03125 2.5625 -1.769531 2.5625 -1.46875 C 2.5625 -1.164062 2.507812 -0.898438 2.40625 -0.671875 C 2.300781 -0.441406 2.160156 -0.265625 1.984375 -0.140625 C 1.804688 -0.0234375 1.609375 0.03125 1.390625 0.03125 Z M 1.390625 -0.25 C 1.554688 -0.25 1.703125 -0.296875 1.828125 -0.390625 C 1.960938 -0.484375 2.066406 -0.617188 2.140625 -0.796875 C 2.210938 -0.984375 2.25 -1.207031 2.25 -1.46875 C 2.25 -1.71875 2.210938 -1.929688 2.140625 -2.109375 C 2.066406 -2.296875 1.960938 -2.4375 1.828125 -2.53125 C 1.703125 -2.632812 1.554688 -2.6875 1.390625 -2.6875 C 1.210938 -2.6875 1.054688 -2.632812 0.921875 -2.53125 C 0.796875 -2.4375 0.695312 -2.296875 0.625 -2.109375 C 0.5625 -1.929688 0.53125 -1.71875 0.53125 -1.46875 C 0.53125 -1.207031 0.5625 -0.984375 0.625 -0.796875 C 0.695312 -0.617188 0.796875 -0.484375 0.921875 -0.390625 C 1.054688 -0.296875 1.210938 -0.25 1.390625 -0.25 Z M 1.390625 -0.25 "/></g></g></g><g fill="#ffffff" fill-opacity="1"><g transform="translate(80.525597, 29.128491)"><g><path d="M 1.03125 -2.9375 L 1.03125 0 L 0.734375 0 L 0.734375 -2.65625 L 0.03125 -2.65625 L 0.03125 -2.9375 Z M 1.03125 -2.9375 "/></g></g></g></svg>